Coordinates
version=1
nRows=20
nColumns=34
inDegrees=yes

Units are S.I. units (second, meters, Newtons, ...)
If the header above contains a line with 'inDegrees', this indicates whether rotational values are in degrees (yes) or radians (no).

endheader
time	pelvis_tilt	pelvis_list	pelvis_rotation	pelvis_tx	pelvis_ty	pelvis_tz	hip_flexion_r	hip_adduction_r	hip_rotation_r	knee_angle_r	ankle_angle_r	subtalar_angle_r	mtp_angle_r	hip_flexion_l	hip_adduction_l	hip_rotation_l	knee_angle_l	ankle_angle_l	subtalar_angle_l	mtp_angle_l	lumbar_extension	lumbar_bending	lumbar_rotation	arm_flex_r	arm_add_r	arm_rot_r	elbow_flex_r	pro_sup_r	arm_flex_l	arm_add_l	arm_rot_l	elbow_flex_l	pro_sup_l
      0.00000000	     -0.12537606	     -0.04908756	      3.29596920	     -2.18997368	      1.18910260	     -0.18083854	     -0.01396254	     -2.07145916	     -2.31638483	      5.34668601	      1.68357800	     -5.70566284	      0.00000000	     -1.20410212	     -3.02361907	    -11.54023711	      0.00000000	     -0.27484347	     -2.21237353	      0.00000000	     -5.65368186	      0.58748028	     -3.10175861	      5.74957894	     -9.67574025	     22.05123447	     22.51431994	     74.54448760	      4.26687942	    -11.16440402	     23.47390313	     25.29202077	     62.23730635
      0.01666670	     -1.56145426	     -0.49764469	      3.04741809	     -2.18828139	      1.18554081	     -0.18223502	      0.90312424	     -1.56763768	     -2.63983486	      3.98807253	      2.49283934	     -2.17135118	      0.00000000	      0.36209474	     -3.16477335	    -15.55602229	      0.00000000	      0.87538816	      1.29259503	      0.00000000	     -2.30169705	      0.93912132	     -2.81506443	      5.43215427	     -8.66493973	     18.92876579	     20.03260349	     73.96004437	      4.04212776	     -9.96914367	     22.07898336	     23.29224708	     62.18874531
      0.03333330	     -2.37191385	     -0.62591119	      2.51961826	     -2.18717220	      1.18444265	     -0.18212695	      1.40964185	     -1.30827098	     -2.94420134	      3.16410986	      2.18631970	     -1.68847880	      0.00000000	      1.19004282	     -3.29422270	    -17.67480891	      0.00000000	      1.07435786	      3.33738944	      0.00000000	     -0.98188828	      0.76426313	     -2.15208164	      4.58839013	     -7.93761625	     14.71039947	     20.11553935	     73.22945753	      3.89930598	     -9.67934306	     20.24107026	     22.42474181	     62.25043020
      0.05000000	     -2.51737389	     -0.70432587	      2.42926272	     -2.18734912	      1.18350957	     -0.18271859	      1.47672315	     -1.23750629	     -3.48790066	      2.65422678	      2.72019797	     -0.34257518	      0.00000000	      1.36663652	     -3.41389966	    -18.61634877	      0.00000000	      1.34170829	      4.28396455	      0.00000000	     -0.76136966	      0.77028014	     -1.91798796	      3.69297433	     -7.47671275	     10.21363176	     20.91351099	     72.65133202	      3.59813065	     -9.41812667	     18.31566008	     22.24156810	     62.40724536
      0.06666670	     -3.05589901	     -0.74859109	      2.43339162	     -2.18749163	      1.18106266	     -0.18310501	      1.98191942	     -1.17902057	     -3.61613235	      2.24999893	      2.92520510	     -0.06838748	      0.00000000	      1.96734854	     -3.46988365	    -18.93314969	      0.00000000	      1.72276513	      5.01974293	      0.00000000	     -0.12602948	      0.82510869	     -2.08121771	      3.30961717	     -7.25839828	      9.24975742	     21.26083605	     72.56060856	      3.16569910	     -9.42637596	     17.78685123	     21.99181765	     62.38485953
      0.08333330	     -3.10387441	     -0.70074136	      2.42058685	     -2.18759948	      1.17990491	     -0.18336538	      2.02453778	     -1.22028852	     -3.61930428	      1.98948354	      3.04825066	     -0.06392378	      0.00000000	      2.05303182	     -3.40867043	    -18.88974778	      0.00000000	      1.76817219	      5.07997323	      0.00000000	     -0.27036873	      0.87372791	     -1.99510157	      3.23330275	     -7.22905947	      9.21245955	     21.23768326	     72.55412712	      3.04174288	     -9.45287324	     17.75096671	     21.94067804	     62.37633516
      0.10000000	     -3.27541392	     -0.63942058	      2.53940010	     -2.18695173	      1.17966028	     -0.18353825	      2.06516906	     -1.32265214	     -4.27800520	      1.65368803	      3.71931929	      1.42732145	      0.00000000	      2.23779587	     -3.33740225	    -19.59540263	      0.00000000	      2.56897962	      7.16681854	      0.00000000	     -0.03513145	      0.79501217	     -1.50624857	      2.60143568	     -7.07647299	      7.05518052	     21.49324677	     72.11706959	      3.16378140	     -9.00137393	     15.75526667	     21.55164508	     61.87873372
      0.11666670	     -3.32844311	     -0.57769708	      2.58457522	     -2.18671324	      1.18008464	     -0.18338632	      2.05235650	     -1.38920660	     -4.30546553	      1.48386811	      3.78081271	      1.39832549	      0.00000000	      2.31844535	     -3.25895700	    -19.54699954	      0.00000000	      2.59762714	      7.18888617	      0.00000000	     -0.11234033	      0.82397042	     -1.41479587	      2.66010609	     -7.04990885	      7.03588283	     21.51551944	     72.11413020	      3.10453454	     -8.98979132	     15.73374532	     21.53034324	     61.87257280
      0.13333330	     -3.34290951	     -0.43890747	      2.69487864	     -2.18646126	      1.17943594	     -0.18335747	      1.88067656	     -1.53809965	     -4.35637670	      1.19531412	      3.85391525	      1.43177422	      0.00000000	      2.32609627	     -3.10257266	    -19.31552482	      0.00000000	      2.70617921	      7.39938506	      0.00000000	     -0.09966893	      0.66437237	     -1.39414315	      2.64381864	     -7.10396352	      6.91930466	     21.53711480	     72.09107110	      3.13391836	     -8.86461259	     15.59326803	     21.51688804	     61.83209225
      0.15000000	     -3.36060681	     -0.41182104	      2.67417834	     -2.18684554	      1.17788217	     -0.18318460	      1.83475438	     -1.55013933	     -4.45193187	      1.12560357	      3.88097006	      1.40460133	      0.00000000	      2.32463899	     -3.08846225	    -19.29310798	      0.00000000	      2.70812885	      7.44168539	      0.00000000	     -0.10746013	      0.67350884	     -1.29060735	      2.75000774	     -7.11182600	      6.89770582	     21.57545976	     72.08674977	      3.06990800	     -8.84714736	     15.56668936	     21.48589080	     61.82294537
      0.16666670	     -3.37443857	     -0.40488286	      2.67119100	     -2.18750087	      1.17592056	     -0.18319018	      1.81955166	     -1.54677118	     -4.45467897	      1.13067131	      3.88095663	      1.40423631	      0.00000000	      2.31873070	     -3.08986018	    -19.29310748	      0.00000000	      2.70765623	      7.44271517	      0.00000000	     -0.10737671	      0.67360967	     -1.28912624	      2.75226950	     -7.11317188	      6.89714382	     21.57617426	     72.08663240	      3.06869689	     -8.84565701	     15.56624844	     21.48529636	     61.82275273
      0.18333330	     -3.37132923	     -0.36728603	      2.57947864	     -2.18776228	      1.17424259	     -0.18294981	      1.76288729	     -1.56352844	     -4.63788414	      1.03765873	      3.92851624	      1.33795438	      0.00000000	      2.28559912	     -3.07299053	    -19.29792233	      0.00000000	      2.70928303	      7.48469404	      0.00000000	     -0.09003145	      0.66523659	     -1.13968704	      2.99108550	     -7.20988925	      6.86478311	     21.65377174	     72.08039758	      2.98801320	     -8.77784997	     15.54292996	     21.44711952	     61.81198687
      0.20000000	     -3.38044951	     -0.35515099	      2.57806955	     -2.18723276	      1.17388753	     -0.18272828	      1.75235309	     -1.55942949	     -4.64770674	      1.04348526	      3.92725859	      1.33660010	      0.00000000	      2.28515261	     -3.07561338	    -19.30261789	      0.00000000	      2.70999104	      7.48642350	      0.00000000	     -0.09726388	      0.66819283	     -1.13401121	      3.00178860	     -7.21680457	      6.86265261	     21.65778805	     72.07983832	      2.98486222	     -8.77311482	     15.54041072	     21.44424334	     61.81092596
      0.21666670	     -3.38793099	     -0.35011015	      2.54047932	     -2.18632496	      1.17457013	     -0.18260921	      1.74556873	     -1.55424983	     -4.80595041	      1.02398031	      3.91675768	      1.29813542	      0.00000000	      2.28242957	     -3.08112099	    -19.36261272	      0.00000000	      2.70543167	      7.51454360	      0.00000000	     -0.18583147	      0.68491138	     -1.00794595	      3.16292339	     -7.30191000	      6.83934709	     21.72348313	     72.07321878	      2.88924777	     -8.73237941	     15.51147559	     21.39608075	     61.79787806
      0.23333330	     -3.40992346	     -0.34148119	      2.53502971	     -2.18546163	      1.17564230	     -0.18255059	      1.73300995	     -1.55202314	     -4.81084006	      1.03256880	      3.91290688	      1.29922726	      0.00000000	      2.27808914	     -3.08730217	    -19.36591426	      0.00000000	      2.70346896	      7.51720120	      0.00000000	     -0.19034786	      0.68877214	     -1.00770805	      3.16766549	     -7.30586096	      6.83835597	     21.72669823	     72.07278714	      2.89260757	     -8.73018165	     15.50911642	     21.39605543	     61.79703365
      0.25000000	     -3.41429946	     -0.34552216	      2.46338278	     -2.18545478	      1.17586285	     -0.18260119	      1.70578190	     -1.54099703	     -4.94457237	      0.97975401	      3.81592030	      1.32926961	      0.00000000	      2.23833125	     -3.10571685	    -19.44063206	      0.00000000	      2.62366918	      7.60761699	      0.00000000	     -0.22391650	      0.77608223	     -0.89706430	      3.32769764	     -7.40890389	      6.81753900	     21.82321985	     72.06270795	      2.88576474	     -8.70677833	     15.45501247	     21.38174598	     61.77729704
      0.26666670	     -3.42692057	     -0.34366492	      2.46555728	     -2.18578638	      1.17494284	     -0.18270009	      1.70270029	     -1.53952748	     -4.94468831	      0.98082857	      3.81473494	      1.33021250	      0.00000000	      2.22686651	     -3.10728273	    -19.44192075	      0.00000000	      2.62289103	      7.60814015	      0.00000000	     -0.22478286	      0.77633495	     -0.89686774	      3.32788431	     -7.40924322	      6.81749763	     21.82368290	     72.06262715	      2.88635571	     -8.70656065	     15.45454189	     21.38186435	     61.77713404
      0.28333330	     -3.44962825	     -0.34971197	      2.47636849	     -2.18571402	      1.17390089	     -0.18282885	      1.71014469	     -1.54394149	     -4.94638369	      0.97257712	      3.80877488	      1.33423544	      0.00000000	      2.19795140	     -3.10977552	    -19.44860090	      0.00000000	      2.61990515	      7.61092490	      0.00000000	     -0.22752861	      0.78028469	     -0.89293239	      3.33563011	     -7.41294452	      6.81705955	     21.82806612	     72.06215629	      2.89395390	     -8.70788669	     15.45149092	     21.38405675	     61.77623487
      0.30000000	     -3.22051987	     -0.39413947	      2.38333275	     -2.18580263	      1.17364477	     -0.18272697	      1.35812767	     -1.48681007	     -5.23481807	      0.72255587	      3.68084421	      2.05195508	      0.00000000	      1.91859354	     -3.17594848	    -20.40511690	      0.00000000	      2.75526298	      8.79211996	      0.00000000	     -0.70381298	      0.86922687	     -0.23518644	      2.98285204	     -7.75695576	      6.85503398	     22.68915026	     71.86405439	      3.33927597	     -8.55449131	     14.56465223	     21.75041813	     61.47039503
      0.31666670	     -3.22478630	     -0.39720687	      2.38454215	     -2.18592775	      1.17338265	     -0.18266122	      1.35994578	     -1.48859262	     -5.23501960	      0.72201368	      3.68069647	      2.05190404	      0.00000000	      1.91303390	     -3.17449392	    -20.40534136	      0.00000000	      2.75515609	      8.79218578	      0.00000000	     -0.70359308	      0.86973287	     -0.23516145	      2.98416556	     -7.75701733	      6.85494189	     22.68982629	     71.86393037	      3.34042703	     -8.55508942	     14.56427750	     21.75069265	     61.47029558
